<svg width="1440" height="799" xmlns="http://www.w3.org/2000/svg"><g><path d="M-66.84463097713888,-100.72656629607081L-132.1046659257263,279.7241374757141L-95.0811136700213,92.85246315412223Z" fill="#ffefe4" stroke="#ffefe4"></path><path d="M-66.84463097713888,-100.72656629607081L-95.0811136700213,92.85246315412223L116.57817816361785,127.09284505806863Z" fill="#ffeee6" stroke="#ffeee6"></path><path d="M-66.84463097713888,-100.72656629607081L116.57817816361785,127.09284505806863L123.52967952378094,-105.21722199395299Z" fill="#ffeee6" stroke="#ffeee6"></path><path d="M123.52967952378094,-105.21722199395299L116.57817816361785,127.09284505806863L203.65654561668634,-96.65238769724965Z" fill="#fee7dd" stroke="#fee7dd"></path><path d="M123.52967952378094,-105.21722199395299L203.65654561668634,-96.65238769724965L817.3421710822731,-98.018819661811Z" fill="#fed5c6" stroke="#fed5c6"></path><path d="M123.52967952378094,-105.21722199395299L817.3421710822731,-98.018819661811L1147.667606268078,-117.05713131465018Z" fill="#fdb7a7" stroke="#fdb7a7"></path><path d="M123.52967952378094,-105.21722199395299L1147.667606268078,-117.05713131465018L1585.437385411933,-130.71689528413117Z" fill="#ee9a96" stroke="#ee9a96"></path><path d="M203.65654561668634,-96.65238769724965L116.57817816361785,127.09284505806863L284.4956336170435,51.60731443203986Z" fill="#fedfd3" stroke="#fedfd3"></path><path d="M203.65654561668634,-96.65238769724965L284.4956336170435,51.60731443203986L341.2728134728968,-56.551018534228206Z" fill="#feddd1" stroke="#feddd1"></path><path d="M203.65654561668634,-96.65238769724965L341.2728134728968,-56.551018534228206L550.362102733925,-54.42499282769859Z" fill="#fed6c8" stroke="#fed6c8"></path><path d="M203.65654561668634,-96.65238769724965L550.362102733925,-54.42499282769859L682.5781849119812,-79.76254320703447Z" fill="#feccbd" stroke="#feccbd"></path><path d="M203.65654561668634,-96.65238769724965L682.5781849119812,-79.76254320703447L817.3421710822731,-98.018819661811Z" fill="#fdc3b4" stroke="#fdc3b4"></path><path d="M341.2728134728968,-56.551018534228206L284.4956336170435,51.60731443203986L377.8945968300104,30.209707701578736Z" fill="#fed8c9" stroke="#fed8c9"></path><path d="M341.2728134728968,-56.551018534228206L377.8945968300104,30.209707701578736L550.362102733925,-54.42499282769859Z" fill="#fed1c2" stroke="#fed1c2"></path><path d="M550.362102733925,-54.42499282769859L377.8945968300104,30.209707701578736L471.84748062863946,81.92706705071032Z" fill="#fecaba" stroke="#fecaba"></path><path d="M550.362102733925,-54.42499282769859L471.84748062863946,81.92706705071032L651.7845703661442,68.74596082605422Z" fill="#fdc0ae" stroke="#fdc0ae"></path><path d="M550.362102733925,-54.42499282769859L651.7845703661442,68.74596082605422L682.5781849119812,-79.76254320703447Z" fill="#fdbdae" stroke="#fdbdae"></path><path d="M682.5781849119812,-79.76254320703447L651.7845703661442,68.74596082605422L779.782512942329,23.382329531013966Z" fill="#fdb6a5" stroke="#fdb6a5"></path><path d="M682.5781849119812,-79.76254320703447L779.782512942329,23.382329531013966L817.3421710822731,-98.018819661811Z" fill="#fbb0a2" stroke="#fbb0a2"></path><path d="M817.3421710822731,-98.018819661811L779.782512942329,23.382329531013966L944.7781156282872,-96.67017566040158Z" fill="#f5a69d" stroke="#f5a69d"></path><path d="M817.3421710822731,-98.018819661811L944.7781156282872,-96.67017566040158L1147.667606268078,-117.05713131465018Z" fill="#ed9895" stroke="#ed9895"></path><path d="M944.7781156282872,-96.67017566040158L779.782512942329,23.382329531013966L940.334803070873,114.15630399249494Z" fill="#f2a097" stroke="#f2a097"></path><path d="M944.7781156282872,-96.67017566040158L940.334803070873,114.15630399249494L1176.3739204779267,97.94524543918669Z" fill="#e98e8a" stroke="#e98e8a"></path><path d="M944.7781156282872,-96.67017566040158L1176.3739204779267,97.94524543918669L1147.667606268078,-117.05713131465018Z" fill="#e58b8e" stroke="#e58b8e"></path><path d="M1147.667606268078,-117.05713131465018L1176.3739204779267,97.94524543918669L1261.4419123437256,-32.87119260057807Z" fill="#de8087" stroke="#de8087"></path><path d="M1147.667606268078,-117.05713131465018L1261.4419123437256,-32.87119260057807L1425.9933018218726,-31.820991542190313Z" fill="#d88082" stroke="#d88082"></path><path d="M1147.667606268078,-117.05713131465018L1425.9933018218726,-31.820991542190313L1585.437385411933,-130.71689528413117Z" fill="#d18080" stroke="#d18080"></path><path d="M1261.4419123437256,-32.87119260057807L1176.3739204779267,97.94524543918669L1299.0579489525408,120.65996591001749Z" fill="#da7877" stroke="#da7877"></path><path d="M1261.4419123437256,-32.87119260057807L1299.0579489525408,120.65996591001749L1418.626672513783,34.161805752664804Z" fill="#d57b77" stroke="#d57b77"></path><path d="M1261.4419123437256,-32.87119260057807L1418.626672513783,34.161805752664804L1425.9933018218726,-31.820991542190313Z" fill="#d28080" stroke="#d28080"></path><path d="M1425.9933018218726,-31.820991542190313L1418.626672513783,34.161805752664804L1603.488722294569,73.3223866391927Z" fill="#ca7d7b" stroke="#ca7d7b"></path><path d="M1425.9933018218726,-31.820991542190313L1603.488722294569,73.3223866391927L1585.437385411933,-130.71689528413117Z" fill="#c78080" stroke="#c78080"></path><path d="M-95.0811136700213,92.85246315412223L-132.1046659257263,279.7241374757141L67.36612502485514,173.5312582924962Z" fill="#ffe0cc" stroke="#ffe0cc"></path><path d="M-95.0811136700213,92.85246315412223L67.36612502485514,173.5312582924962L116.57817816361785,127.09284505806863Z" fill="#ffe0ce" stroke="#ffe0ce"></path><path d="M116.57817816361785,127.09284505806863L67.36612502485514,173.5312582924962L184.4416361488402,200.119946943596Z" fill="#fed5bd" stroke="#fed5bd"></path><path d="M116.57817816361785,127.09284505806863L184.4416361488402,200.119946943596L284.4956336170435,51.60731443203986Z" fill="#fed4bf" stroke="#fed4bf"></path><path d="M284.4956336170435,51.60731443203986L184.4416361488402,200.119946943596L421.39999570325017,282.3629637155682Z" fill="#fec6aa" stroke="#fec6aa"></path><path d="M284.4956336170435,51.60731443203986L421.39999570325017,282.3629637155682L377.8945968300104,30.209707701578736Z" fill="#fec8af" stroke="#fec8af"></path><path d="M377.8945968300104,30.209707701578736L421.39999570325017,282.3629637155682L471.84748062863946,81.92706705071032Z" fill="#fec1a7" stroke="#fec1a7"></path><path d="M471.84748062863946,81.92706705071032L421.39999570325017,282.3629637155682L520.4449006542563,172.07354625687003Z" fill="#feb799" stroke="#feb799"></path><path d="M471.84748062863946,81.92706705071032L520.4449006542563,172.07354625687003L651.7845703661442,68.74596082605422Z" fill="#fdb8a0" stroke="#fdb8a0"></path><path d="M651.7845703661442,68.74596082605422L520.4449006542563,172.07354625687003L642.0460245385766,194.3683542497456Z" fill="#fdae92" stroke="#fdae92"></path><path d="M651.7845703661442,68.74596082605422L642.0460245385766,194.3683542497456L779.234062526375,208.92696074210107Z" fill="#fda487" stroke="#fda487"></path><path d="M651.7845703661442,68.74596082605422L779.234062526375,208.92696074210107L779.782512942329,23.382329531013966Z" fill="#fca78f" stroke="#fca78f"></path><path d="M779.782512942329,23.382329531013966L779.234062526375,208.92696074210107L940.334803070873,114.15630399249494Z" fill="#f69a86" stroke="#f69a86"></path><path d="M940.334803070873,114.15630399249494L779.234062526375,208.92696074210107L1003.6163487005979,172.34690330922604Z" fill="#f18b77" stroke="#f18b77"></path><path d="M940.334803070873,114.15630399249494L1003.6163487005979,172.34690330922604L1176.3739204779267,97.94524543918669Z" fill="#e88176" stroke="#e88176"></path><path d="M1176.3739204779267,97.94524543918669L1003.6163487005979,172.34690330922604L1166.6647636145353,270.00169194303453Z" fill="#e37267" stroke="#e37267"></path><path d="M1176.3739204779267,97.94524543918669L1166.6647636145353,270.00169194303453L1228.3458736818284,202.46679226867855Z" fill="#de6960" stroke="#de6960"></path><path d="M1176.3739204779267,97.94524543918669L1228.3458736818284,202.46679226867855L1299.0579489525408,120.65996591001749Z" fill="#db6f68" stroke="#db6f68"></path><path d="M1299.0579489525408,120.65996591001749L1228.3458736818284,202.46679226867855L1370.5025971960276,279.32827804237604Z" fill="#d76858" stroke="#d76858"></path><path d="M1299.0579489525408,120.65996591001749L1370.5025971960276,279.32827804237604L1418.626672513783,34.161805752664804Z" fill="#d26e62" stroke="#d26e62"></path><path d="M1418.626672513783,34.161805752664804L1370.5025971960276,279.32827804237604L1540.9782928414643,277.7579452190548Z" fill="#cd6857" stroke="#cd6857"></path><path d="M1418.626672513783,34.161805752664804L1540.9782928414643,277.7579452190548L1603.488722294569,73.3223866391927Z" fill="#c87065" stroke="#c87065"></path><path d="M1603.488722294569,73.3223866391927L1540.9782928414643,277.7579452190548L1550.0774693861604,341.485011857003Z" fill="#c56150" stroke="#c56150"></path><path d="M1603.488722294569,73.3223866391927L1550.0774693861604,341.485011857003L1631.3824625406414,927.0968895033002Z" fill="#c13426" stroke="#c13426"></path><path d="M-132.1046659257263,279.7241374757141L-131.01719389669597,399.46556920185685L119.9698902759701,354.7500669769943Z" fill="#ffc0a9" stroke="#ffc0a9"></path><path d="M-132.1046659257263,279.7241374757141L119.9698902759701,354.7500669769943L67.36612502485514,173.5312582924962Z" fill="#ffcbb2" stroke="#ffcbb2"></path><path d="M67.36612502485514,173.5312582924962L119.9698902759701,354.7500669769943L184.4416361488402,200.119946943596Z" fill="#fec8ae" stroke="#fec8ae"></path><path d="M184.4416361488402,200.119946943596L119.9698902759701,354.7500669769943L279.25191541202366,385.25435814633965Z" fill="#feb498" stroke="#feb498"></path><path d="M184.4416361488402,200.119946943596L279.25191541202366,385.25435814633965L421.39999570325017,282.3629637155682Z" fill="#feb293" stroke="#feb293"></path><path d="M421.39999570325017,282.3629637155682L279.25191541202366,385.25435814633965L336.4841825142503,387.421602755785Z" fill="#fea180" stroke="#fea180"></path><path d="M421.39999570325017,282.3629637155682L336.4841825142503,387.421602755785L562.453339509666,402.76067700237036Z" fill="#fe9776" stroke="#fe9776"></path><path d="M421.39999570325017,282.3629637155682L562.453339509666,402.76067700237036L520.4449006542563,172.07354625687003Z" fill="#fea07f" stroke="#fea07f"></path><path d="M520.4449006542563,172.07354625687003L562.453339509666,402.76067700237036L642.0460245385766,194.3683542497456Z" fill="#fd9f7e" stroke="#fd9f7e"></path><path d="M642.0460245385766,194.3683542497456L562.453339509666,402.76067700237036L731.9838935974985,399.2634878028184Z" fill="#fd8967" stroke="#fd8967"></path><path d="M642.0460245385766,194.3683542497456L731.9838935974985,399.2634878028184L779.234062526375,208.92696074210107Z" fill="#fd8f6d" stroke="#fd8f6d"></path><path d="M779.234062526375,208.92696074210107L731.9838935974985,399.2634878028184L821.0025063436478,404.3396161682904Z" fill="#f97a5b" stroke="#f97a5b"></path><path d="M779.234062526375,208.92696074210107L821.0025063436478,404.3396161682904L941.965568549931,335.1168934162706Z" fill="#f5775b" stroke="#f5775b"></path><path d="M779.234062526375,208.92696074210107L941.965568549931,335.1168934162706L1003.6163487005979,172.34690330922604Z" fill="#f17f67" stroke="#f17f67"></path><path d="M1003.6163487005979,172.34690330922604L941.965568549931,335.1168934162706L1091.5812331996858,369.4549201615155Z" fill="#ea6856" stroke="#ea6856"></path><path d="M1003.6163487005979,172.34690330922604L1091.5812331996858,369.4549201615155L1166.6647636145353,270.00169194303453Z" fill="#e56456" stroke="#e56456"></path><path d="M1166.6647636145353,270.00169194303453L1091.5812331996858,369.4549201615155L1215.5178644042462,405.5829050950706Z" fill="#e04d41" stroke="#e04d41"></path><path d="M1166.6647636145353,270.00169194303453L1215.5178644042462,405.5829050950706L1370.5025971960276,279.32827804237604Z" fill="#da5042" stroke="#da5042"></path><path d="M1166.6647636145353,270.00169194303453L1370.5025971960276,279.32827804237604L1228.3458736818284,202.46679226867855Z" fill="#da5d4f" stroke="#da5d4f"></path><path d="M1370.5025971960276,279.32827804237604L1215.5178644042462,405.5829050950706L1415.0613996014,345.55177504196763Z" fill="#d44b38" stroke="#d44b38"></path><path d="M1370.5025971960276,279.32827804237604L1415.0613996014,345.55177504196763L1540.9782928414643,277.7579452190548Z" fill="#cd5341" stroke="#cd5341"></path><path d="M1540.9782928414643,277.7579452190548L1415.0613996014,345.55177504196763L1550.0774693861604,341.485011857003Z" fill="#c94f3d" stroke="#c94f3d"></path><path d="M-131.01719389669597,399.46556920185685L-98.49485060200095,699.186709150672L-16.234689177945256,567.6521163526922Z" fill="#fa958c" stroke="#fa958c"></path><path d="M-131.01719389669597,399.46556920185685L-16.234689177945256,567.6521163526922L119.9698902759701,354.7500669769943Z" fill="#fda994" stroke="#fda994"></path><path d="M119.9698902759701,354.7500669769943L-16.234689177945256,567.6521163526922L65.39252878166735,554.9721254780889Z" fill="#fc9887" stroke="#fc9887"></path><path d="M119.9698902759701,354.7500669769943L65.39252878166735,554.9721254780889L213.70850063860416,489.28198023699224Z" fill="#fc9982" stroke="#fc9982"></path><path d="M119.9698902759701,354.7500669769943L213.70850063860416,489.28198023699224L279.25191541202366,385.25435814633965Z" fill="#fea083" stroke="#fea083"></path><path d="M279.25191541202366,385.25435814633965L213.70850063860416,489.28198023699224L336.4841825142503,387.421602755785Z" fill="#fd987a" stroke="#fd987a"></path><path d="M336.4841825142503,387.421602755785L213.70850063860416,489.28198023699224L386.5555602684617,577.1922183316201Z" fill="#fb866e" stroke="#fb866e"></path><path d="M336.4841825142503,387.421602755785L386.5555602684617,577.1922183316201L562.453339509666,402.76067700237036Z" fill="#fc8366" stroke="#fc8366"></path><path d="M562.453339509666,402.76067700237036L386.5555602684617,577.1922183316201L582.9027557652444,552.4249924253672Z" fill="#fa6f57" stroke="#fa6f57"></path><path d="M562.453339509666,402.76067700237036L582.9027557652444,552.4249924253672L701.2539929989725,522.5428314227611Z" fill="#fa694f" stroke="#fa694f"></path><path d="M562.453339509666,402.76067700237036L701.2539929989725,522.5428314227611L731.9838935974985,399.2634878028184Z" fill="#fc7051" stroke="#fc7051"></path><path d="M731.9838935974985,399.2634878028184L701.2539929989725,522.5428314227611L827.2570762038231,482.36354503780603Z" fill="#f96146" stroke="#f96146"></path><path d="M731.9838935974985,399.2634878028184L827.2570762038231,482.36354503780603L821.0025063436478,404.3396161682904Z" fill="#f76549" stroke="#f76549"></path><path d="M821.0025063436478,404.3396161682904L827.2570762038231,482.36354503780603L941.965568549931,335.1168934162706Z" fill="#f36247" stroke="#f36247"></path><path d="M941.965568549931,335.1168934162706L827.2570762038231,482.36354503780603L1029.291232014075,545.1078249234706Z" fill="#ed503c" stroke="#ed503c"></path><path d="M941.965568549931,335.1168934162706L1029.291232014075,545.1078249234706L1091.5812331996858,369.4549201615155Z" fill="#e94e3c" stroke="#e94e3c"></path><path d="M1091.5812331996858,369.4549201615155L1029.291232014075,545.1078249234706L1128.634079201147,569.7180402930826Z" fill="#e2352e" stroke="#e2352e"></path><path d="M1091.5812331996858,369.4549201615155L1128.634079201147,569.7180402930826L1215.5178644042462,405.5829050950706Z" fill="#df3930" stroke="#df3930"></path><path d="M1215.5178644042462,405.5829050950706L1128.634079201147,569.7180402930826L1225.0763036683202,538.3178367186338Z" fill="#da2726" stroke="#da2726"></path><path d="M1215.5178644042462,405.5829050950706L1225.0763036683202,538.3178367186338L1414.1161546949297,472.5066645909101Z" fill="#d52f24" stroke="#d52f24"></path><path d="M1215.5178644042462,405.5829050950706L1414.1161546949297,472.5066645909101L1415.0613996014,345.55177504196763Z" fill="#d33d2b" stroke="#d33d2b"></path><path d="M1415.0613996014,345.55177504196763L1414.1161546949297,472.5066645909101L1516.5722507983446,494.7967724595219Z" fill="#cc3727" stroke="#cc3727"></path><path d="M1415.0613996014,345.55177504196763L1516.5722507983446,494.7967724595219L1550.0774693861604,341.485011857003Z" fill="#ca402d" stroke="#ca402d"></path><path d="M1550.0774693861604,341.485011857003L1516.5722507983446,494.7967724595219L1544.7677069250494,617.6369868870825Z" fill="#c42c21" stroke="#c42c21"></path><path d="M1550.0774693861604,341.485011857003L1544.7677069250494,617.6369868870825L1577.972534475848,777.0478670205921Z" fill="#bf1614" stroke="#bf1614"></path><path d="M1550.0774693861604,341.485011857003L1577.972534475848,777.0478670205921L1631.3824625406414,927.0968895033002Z" fill="#ba0007" stroke="#ba0007"></path><path d="M-16.234689177945256,567.6521163526922L-98.49485060200095,699.186709150672L83.29015963710845,726.7432187777013Z" fill="#f67677" stroke="#f67677"></path><path d="M-16.234689177945256,567.6521163526922L83.29015963710845,726.7432187777013L65.39252878166735,554.9721254780889Z" fill="#f87d77" stroke="#f87d77"></path><path d="M65.39252878166735,554.9721254780889L83.29015963710845,726.7432187777013L244.57031336613,714.4773195125163Z" fill="#f66b68" stroke="#f66b68"></path><path d="M65.39252878166735,554.9721254780889L244.57031336613,714.4773195125163L213.70850063860416,489.28198023699224Z" fill="#f87a6e" stroke="#f87a6e"></path><path d="M213.70850063860416,489.28198023699224L244.57031336613,714.4773195125163L386.5555602684617,577.1922183316201Z" fill="#f77063" stroke="#f77063"></path><path d="M386.5555602684617,577.1922183316201L244.57031336613,714.4773195125163L416.7980079073459,668.1864613015205Z" fill="#f55d54" stroke="#f55d54"></path><path d="M386.5555602684617,577.1922183316201L416.7980079073459,668.1864613015205L582.9027557652444,552.4249924253672Z" fill="#f75f50" stroke="#f75f50"></path><path d="M582.9027557652444,552.4249924253672L416.7980079073459,668.1864613015205L579.4977454002947,645.9476295579225Z" fill="#f75447" stroke="#f75447"></path><path d="M582.9027557652444,552.4249924253672L579.4977454002947,645.9476295579225L701.2539929989725,522.5428314227611Z" fill="#f85644" stroke="#f85644"></path><path d="M701.2539929989725,522.5428314227611L579.4977454002947,645.9476295579225L695.1577639393508,718.785535544157Z" fill="#f64639" stroke="#f64639"></path><path d="M701.2539929989725,522.5428314227611L695.1577639393508,718.785535544157L875.6638488359749,677.19825505279Z" fill="#f3392f" stroke="#f3392f"></path><path d="M701.2539929989725,522.5428314227611L875.6638488359749,677.19825505279L827.2570762038231,482.36354503780603Z" fill="#f34637" stroke="#f34637"></path><path d="M827.2570762038231,482.36354503780603L875.6638488359749,677.19825505279L956.4910994656384,616.7034074105322Z" fill="#ec352d" stroke="#ec352d"></path><path d="M827.2570762038231,482.36354503780603L956.4910994656384,616.7034074105322L1029.291232014075,545.1078249234706Z" fill="#ea3930" stroke="#ea3930"></path><path d="M1029.291232014075,545.1078249234706L956.4910994656384,616.7034074105322L1113.311368804425,674.0989744942635Z" fill="#e12022" stroke="#e12022"></path><path d="M1029.291232014075,545.1078249234706L1113.311368804425,674.0989744942635L1128.634079201147,569.7180402930826Z" fill="#de1d20" stroke="#de1d20"></path><path d="M1128.634079201147,569.7180402930826L1113.311368804425,674.0989744942635L1233.250871160999,635.9594646468759Z" fill="#d90f18" stroke="#d90f18"></path><path d="M1128.634079201147,569.7180402930826L1233.250871160999,635.9594646468759L1225.0763036683202,538.3178367186338Z" fill="#d8161c" stroke="#d8161c"></path><path d="M1225.0763036683202,538.3178367186338L1233.250871160999,635.9594646468759L1414.1161546949297,472.5066645909101Z" fill="#d21d1a" stroke="#d21d1a"></path><path d="M1414.1161546949297,472.5066645909101L1233.250871160999,635.9594646468759L1420.2273952960968,693.5891042277217Z" fill="#cc1112" stroke="#cc1112"></path><path d="M1414.1161546949297,472.5066645909101L1420.2273952960968,693.5891042277217L1544.7677069250494,617.6369868870825Z" fill="#c51312" stroke="#c51312"></path><path d="M1414.1161546949297,472.5066645909101L1544.7677069250494,617.6369868870825L1516.5722507983446,494.7967724595219Z" fill="#c6221b" stroke="#c6221b"></path><path d="M-98.49485060200095,699.186709150672L-71.5852209739387,945.6791050359607L-65.9367080591619,813.6444775108248Z" fill="#f17975" stroke="#f17975"></path><path d="M-98.49485060200095,699.186709150672L-65.9367080591619,813.6444775108248L83.29015963710845,726.7432187777013Z" fill="#f3756f" stroke="#f3756f"></path><path d="M83.29015963710845,726.7432187777013L-65.9367080591619,813.6444775108248L62.39142679609358,840.8383937738836Z" fill="#f2716a" stroke="#f2716a"></path><path d="M83.29015963710845,726.7432187777013L62.39142679609358,840.8383937738836L183.9147929660976,782.7337761875242Z" fill="#f26a62" stroke="#f26a62"></path><path d="M83.29015963710845,726.7432187777013L183.9147929660976,782.7337761875242L244.57031336613,714.4773195125163Z" fill="#f3665c" stroke="#f3665c"></path><path d="M244.57031336613,714.4773195125163L183.9147929660976,782.7337761875242L369.3558429647237,876.272094771266Z" fill="#f25e52" stroke="#f25e52"></path><path d="M244.57031336613,714.4773195125163L369.3558429647237,876.272094771266L416.7980079073459,668.1864613015205Z" fill="#f2594a" stroke="#f2594a"></path><path d="M416.7980079073459,668.1864613015205L369.3558429647237,876.272094771266L581.7586777545512,820.3797323070467Z" fill="#f14e3f" stroke="#f14e3f"></path><path d="M416.7980079073459,668.1864613015205L581.7586777545512,820.3797323070467L579.4977454002947,645.9476295579225Z" fill="#f4483b" stroke="#f4483b"></path><path d="M579.4977454002947,645.9476295579225L581.7586777545512,820.3797323070467L617.3876019380987,817.3391884379089Z" fill="#f14132" stroke="#f14132"></path><path d="M579.4977454002947,645.9476295579225L617.3876019380987,817.3391884379089L695.1577639393508,718.785535544157Z" fill="#f33e2f" stroke="#f33e2f"></path><path d="M695.1577639393508,718.785535544157L617.3876019380987,817.3391884379089L723.5814806353301,937.712007528171Z" fill="#ef3929" stroke="#ef3929"></path><path d="M695.1577639393508,718.785535544157L723.5814806353301,937.712007528171L873.7858559377491,804.0611514821649Z" fill="#ed3022" stroke="#ed3022"></path><path d="M695.1577639393508,718.785535544157L873.7858559377491,804.0611514821649L875.6638488359749,677.19825505279Z" fill="#ec2a1f" stroke="#ec2a1f"></path><path d="M875.6638488359749,677.19825505279L873.7858559377491,804.0611514821649L929.7834758833051,769.287831550464Z" fill="#e6221a" stroke="#e6221a"></path><path d="M875.6638488359749,677.19825505279L929.7834758833051,769.287831550464L956.4910994656384,616.7034074105322Z" fill="#e61e1f" stroke="#e61e1f"></path><path d="M956.4910994656384,616.7034074105322L929.7834758833051,769.287831550464L1113.311368804425,674.0989744942635Z" fill="#e1151a" stroke="#e1151a"></path><path d="M1113.311368804425,674.0989744942635L929.7834758833051,769.287831550464L1156.3186293002218,826.5750761982054Z" fill="#db0e10" stroke="#db0e10"></path><path d="M1113.311368804425,674.0989744942635L1156.3186293002218,826.5750761982054L1275.0834323186427,787.818409614265Z" fill="#d20108" stroke="#d20108"></path><path d="M1113.311368804425,674.0989744942635L1275.0834323186427,787.818409614265L1233.250871160999,635.9594646468759Z" fill="#d3000b" stroke="#d3000b"></path><path d="M1233.250871160999,635.9594646468759L1275.0834323186427,787.818409614265L1420.2273952960968,693.5891042277217Z" fill="#cc0004" stroke="#cc0004"></path><path d="M1420.2273952960968,693.5891042277217L1275.0834323186427,787.818409614265L1432.6363215129822,794.8174213338643Z" fill="#c60000" stroke="#c60000"></path><path d="M1420.2273952960968,693.5891042277217L1432.6363215129822,794.8174213338643L1577.972534475848,777.0478670205921Z" fill="#bf0000" stroke="#bf0000"></path><path d="M1420.2273952960968,693.5891042277217L1577.972534475848,777.0478670205921L1544.7677069250494,617.6369868870825Z" fill="#bf0005" stroke="#bf0005"></path><path d="M-65.9367080591619,813.6444775108248L-71.5852209739387,945.6791050359607L62.39142679609358,840.8383937738836Z" fill="#f0756f" stroke="#f0756f"></path><path d="M62.39142679609358,840.8383937738836L-71.5852209739387,945.6791050359607L82.46039570309222,974.9590140022337Z" fill="#ee716a" stroke="#ee716a"></path><path d="M62.39142679609358,840.8383937738836L82.46039570309222,974.9590140022337L183.9147929660976,782.7337761875242Z" fill="#ef6a62" stroke="#ef6a62"></path><path d="M183.9147929660976,782.7337761875242L82.46039570309222,974.9590140022337L194.25619463436306,1023.9617343619466Z" fill="#ed675d" stroke="#ed675d"></path><path d="M183.9147929660976,782.7337761875242L194.25619463436306,1023.9617343619466L319.6763067506254,925.8574541285634Z" fill="#ee6155" stroke="#ee6155"></path><path d="M183.9147929660976,782.7337761875242L319.6763067506254,925.8574541285634L369.3558429647237,876.272094771266Z" fill="#ef5d50" stroke="#ef5d50"></path><path d="M369.3558429647237,876.272094771266L319.6763067506254,925.8574541285634L483.8984983507544,1006.945541985333Z" fill="#ec5446" stroke="#ec5446"></path><path d="M369.3558429647237,876.272094771266L483.8984983507544,1006.945541985333L581.7586777545512,820.3797323070467Z" fill="#ed4c3d" stroke="#ed4c3d"></path><path d="M581.7586777545512,820.3797323070467L483.8984983507544,1006.945541985333L723.5814806353301,937.712007528171Z" fill="#ec4131" stroke="#ec4131"></path><path d="M581.7586777545512,820.3797323070467L723.5814806353301,937.712007528171L617.3876019380987,817.3391884379089Z" fill="#ee3d2d" stroke="#ee3d2d"></path><path d="M873.7858559377491,804.0611514821649L723.5814806353301,937.712007528171L825.5442207399756,958.6155836563557Z" fill="#e72b20" stroke="#e72b20"></path><path d="M873.7858559377491,804.0611514821649L825.5442207399756,958.6155836563557L968.5230361483991,929.7063558921218Z" fill="#e2221b" stroke="#e2221b"></path><path d="M873.7858559377491,804.0611514821649L968.5230361483991,929.7063558921218L929.7834758833051,769.287831550464Z" fill="#e21e18" stroke="#e21e18"></path><path d="M929.7834758833051,769.287831550464L968.5230361483991,929.7063558921218L1156.3186293002218,826.5750761982054Z" fill="#db1313" stroke="#db1313"></path><path d="M1156.3186293002218,826.5750761982054L968.5230361483991,929.7063558921218L1108.0479586031288,1023.4942138753831Z" fill="#d40d0f" stroke="#d40d0f"></path><path d="M1156.3186293002218,826.5750761982054L1108.0479586031288,1023.4942138753831L1331.5115612838417,1012.6580763235688Z" fill="#cb0007" stroke="#cb0007"></path><path d="M1156.3186293002218,826.5750761982054L1331.5115612838417,1012.6580763235688L1372.4486511480063,939.4238900765777Z" fill="#c60002" stroke="#c60002"></path><path d="M1156.3186293002218,826.5750761982054L1372.4486511480063,939.4238900765777L1275.0834323186427,787.818409614265Z" fill="#ca0003" stroke="#ca0003"></path><path d="M1275.0834323186427,787.818409614265L1372.4486511480063,939.4238900765777L1432.6363215129822,794.8174213338643Z" fill="#c40000" stroke="#c40000"></path><path d="M1432.6363215129822,794.8174213338643L1372.4486511480063,939.4238900765777L1631.3824625406414,927.0968895033002Z" fill="#bb0000" stroke="#bb0000"></path><path d="M1432.6363215129822,794.8174213338643L1631.3824625406414,927.0968895033002L1577.972534475848,777.0478670205921Z" fill="#b80000" stroke="#b80000"></path><path d="M-71.5852209739387,945.6791050359607L194.25619463436306,1023.9617343619466L82.46039570309222,974.9590140022337Z" fill="#ec6e66" stroke="#ec6e66"></path><path d="M194.25619463436306,1023.9617343619466L1108.0479586031288,1023.4942138753831L483.8984983507544,1006.945541985333Z" fill="#e94132" stroke="#e94132"></path><path d="M194.25619463436306,1023.9617343619466L483.8984983507544,1006.945541985333L319.6763067506254,925.8574541285634Z" fill="#eb594b" stroke="#eb594b"></path><path d="M483.8984983507544,1006.945541985333L1108.0479586031288,1023.4942138753831L825.5442207399756,958.6155836563557Z" fill="#e42b20" stroke="#e42b20"></path><path d="M483.8984983507544,1006.945541985333L825.5442207399756,958.6155836563557L723.5814806353301,937.712007528171Z" fill="#eb3929" stroke="#eb3929"></path><path d="M825.5442207399756,958.6155836563557L1108.0479586031288,1023.4942138753831L968.5230361483991,929.7063558921218Z" fill="#da1916" stroke="#da1916"></path><path d="M1331.5115612838417,1012.6580763235688L1631.3824625406414,927.0968895033002L1372.4486511480063,939.4238900765777Z" fill="#bb0000" stroke="#bb0000"></path></g></svg>